<svg xmlns="http://www.w3.org/2000/svg" width="995.781" height="653.963" viewBox="0 0 995.781 653.963">
  <path id="Pfad_1" data-name="Pfad 1" d="M1377.081,300.715a13.225,13.225,0,0,0-13.2-13.2H1242.465a13.86,13.86,0,0,0-11.878,6.6L1064.3,565.987S994.35,436.651,989.071,428.732h0C932.321,333.709,828.06,273,709.281,273,529.793,273,383.3,414.215,383.3,598.981S529.793,924.963,709.281,924.963c69.947,0,134.616-21.116,187.406-58.07l30.354,39.593c3.959,5.279,13.2,3.959,15.838-2.64l79.185-207.2c2.64-6.6-2.64-13.2-9.238-11.878l-225.68,21.116c-6.6,1.32-10.558,9.238-6.6,14.518l29.035,36.953c-29.035,18.477-63.348,29.035-101.622,29.035-101.622,0-183.447-73.907-183.447-186.087S605.02,414.215,707.961,414.215c63.348,0,117.459,27.715,150.453,76.546l95.023,158.372,114.819-9.239c6.6,0,11.878,6.6,9.238,11.878l-46.191,126.7,19.8,32.994a13.862,13.862,0,0,0,11.878,6.6h0a13.86,13.86,0,0,0,11.878-6.6l158.371-259.993V902.526a13.225,13.225,0,0,0,13.2,13.2h116.139a13.225,13.225,0,0,0,13.2-13.2V300.715Z" transform="translate(-382.3 -272)" fill="none" stroke="#f9dc4a" stroke-width="2"/>
</svg>
